<mxfile host="app.diagrams.net" modified="2022-10-07T11:49:56.060Z" agent="5.0 (X11)" etag="WGuOwBaov1WY684V-o-C" version="20.4.0" type="gitlab">
  <diagram id="xw0xPURF_AsxtJQ--ScD" name="Page-1">
    <mxGraphModel dx="1102" dy="628" grid="1" gridSize="10" guides="1" tooltips="1" connect="1" arrows="1" fold="1" page="1" pageScale="1" pageWidth="827" pageHeight="1169" math="0" shadow="0">
      <root>
        <mxCell id="0" />
        <mxCell id="1" parent="0" />
        <mxCell id="RQPfIWT2WccuBX4CPapm-1" value="маяк" style="rounded=1;whiteSpace=wrap;html=1;" vertex="1" parent="1">
          <mxGeometry x="710" y="255" width="70" height="30" as="geometry" />
        </mxCell>
        <mxCell id="RQPfIWT2WccuBX4CPapm-6" style="edgeStyle=orthogonalEdgeStyle;rounded=0;orthogonalLoop=1;jettySize=auto;html=1;" edge="1" parent="1" source="RQPfIWT2WccuBX4CPapm-2" target="RQPfIWT2WccuBX4CPapm-5">
          <mxGeometry relative="1" as="geometry" />
        </mxCell>
        <mxCell id="RQPfIWT2WccuBX4CPapm-2" value="стекло" style="rounded=1;whiteSpace=wrap;html=1;" vertex="1" parent="1">
          <mxGeometry x="450" y="180" width="90" height="30" as="geometry" />
        </mxCell>
        <mxCell id="RQPfIWT2WccuBX4CPapm-7" style="edgeStyle=orthogonalEdgeStyle;rounded=0;orthogonalLoop=1;jettySize=auto;html=1;" edge="1" parent="1" source="RQPfIWT2WccuBX4CPapm-3" target="RQPfIWT2WccuBX4CPapm-5">
          <mxGeometry relative="1" as="geometry">
            <mxPoint x="610" y="275" as="targetPoint" />
          </mxGeometry>
        </mxCell>
        <mxCell id="RQPfIWT2WccuBX4CPapm-3" value="nither star" style="rounded=1;whiteSpace=wrap;html=1;" vertex="1" parent="1">
          <mxGeometry x="470" y="225" width="90" height="30" as="geometry" />
        </mxCell>
        <mxCell id="RQPfIWT2WccuBX4CPapm-8" style="edgeStyle=orthogonalEdgeStyle;rounded=0;orthogonalLoop=1;jettySize=auto;html=1;" edge="1" parent="1" source="RQPfIWT2WccuBX4CPapm-4" target="RQPfIWT2WccuBX4CPapm-5">
          <mxGeometry relative="1" as="geometry" />
        </mxCell>
        <mxCell id="RQPfIWT2WccuBX4CPapm-4" value="обсидиан" style="rounded=1;whiteSpace=wrap;html=1;" vertex="1" parent="1">
          <mxGeometry x="455" y="270" width="90" height="30" as="geometry" />
        </mxCell>
        <mxCell id="RQPfIWT2WccuBX4CPapm-10" style="edgeStyle=orthogonalEdgeStyle;rounded=0;orthogonalLoop=1;jettySize=auto;html=1;" edge="1" parent="1" source="RQPfIWT2WccuBX4CPapm-5" target="RQPfIWT2WccuBX4CPapm-1">
          <mxGeometry relative="1" as="geometry" />
        </mxCell>
        <mxCell id="RQPfIWT2WccuBX4CPapm-5" value="крафт" style="triangle;whiteSpace=wrap;html=1;" vertex="1" parent="1">
          <mxGeometry x="620" y="230" width="50" height="80" as="geometry" />
        </mxCell>
        <mxCell id="RQPfIWT2WccuBX4CPapm-13" style="edgeStyle=orthogonalEdgeStyle;rounded=0;orthogonalLoop=1;jettySize=auto;html=1;" edge="1" parent="1" source="RQPfIWT2WccuBX4CPapm-11" target="RQPfIWT2WccuBX4CPapm-2">
          <mxGeometry relative="1" as="geometry" />
        </mxCell>
        <mxCell id="RQPfIWT2WccuBX4CPapm-11" value="выпекание &amp;nbsp; &amp;nbsp; " style="triangle;whiteSpace=wrap;html=1;" vertex="1" parent="1">
          <mxGeometry x="414" y="60" width="76" height="80" as="geometry" />
        </mxCell>
        <mxCell id="RQPfIWT2WccuBX4CPapm-14" style="edgeStyle=orthogonalEdgeStyle;rounded=0;orthogonalLoop=1;jettySize=auto;html=1;" edge="1" parent="1" source="RQPfIWT2WccuBX4CPapm-12" target="RQPfIWT2WccuBX4CPapm-11">
          <mxGeometry relative="1" as="geometry">
            <mxPoint x="410" y="90" as="targetPoint" />
            <Array as="points">
              <mxPoint x="387" y="50" />
              <mxPoint x="387" y="90" />
            </Array>
          </mxGeometry>
        </mxCell>
        <mxCell id="RQPfIWT2WccuBX4CPapm-12" value="песок" style="rounded=0;whiteSpace=wrap;html=1;" vertex="1" parent="1">
          <mxGeometry x="250" y="30" width="110" height="40" as="geometry" />
        </mxCell>
        <mxCell id="RQPfIWT2WccuBX4CPapm-16" style="edgeStyle=orthogonalEdgeStyle;rounded=0;orthogonalLoop=1;jettySize=auto;html=1;entryX=0;entryY=0.75;entryDx=0;entryDy=0;" edge="1" parent="1" source="RQPfIWT2WccuBX4CPapm-15" target="RQPfIWT2WccuBX4CPapm-11">
          <mxGeometry relative="1" as="geometry">
            <mxPoint x="400" y="120" as="targetPoint" />
          </mxGeometry>
        </mxCell>
        <mxCell id="RQPfIWT2WccuBX4CPapm-15" value="топливо" style="rounded=0;whiteSpace=wrap;html=1;" vertex="1" parent="1">
          <mxGeometry x="250" y="100" width="90" height="30" as="geometry" />
        </mxCell>
        <mxCell id="RQPfIWT2WccuBX4CPapm-18" style="edgeStyle=orthogonalEdgeStyle;rounded=0;orthogonalLoop=1;jettySize=auto;html=1;exitX=1;exitY=0.5;exitDx=0;exitDy=0;" edge="1" parent="1" source="RQPfIWT2WccuBX4CPapm-17" target="RQPfIWT2WccuBX4CPapm-3">
          <mxGeometry relative="1" as="geometry" />
        </mxCell>
        <mxCell id="RQPfIWT2WccuBX4CPapm-17" value="kill" style="triangle;whiteSpace=wrap;html=1;" vertex="1" parent="1">
          <mxGeometry x="384" y="200" width="60" height="80" as="geometry" />
        </mxCell>
        <mxCell id="RQPfIWT2WccuBX4CPapm-33" style="edgeStyle=orthogonalEdgeStyle;rounded=0;orthogonalLoop=1;jettySize=auto;html=1;entryX=0;entryY=0.75;entryDx=0;entryDy=0;" edge="1" parent="1" source="RQPfIWT2WccuBX4CPapm-20" target="RQPfIWT2WccuBX4CPapm-17">
          <mxGeometry relative="1" as="geometry" />
        </mxCell>
        <mxCell id="RQPfIWT2WccuBX4CPapm-20" value="исушитель" style="shape=hexagon;perimeter=hexagonPerimeter2;whiteSpace=wrap;html=1;fixedSize=1;" vertex="1" parent="1">
          <mxGeometry x="230" y="270" width="120" height="45" as="geometry" />
        </mxCell>
        <mxCell id="RQPfIWT2WccuBX4CPapm-32" style="edgeStyle=orthogonalEdgeStyle;rounded=0;orthogonalLoop=1;jettySize=auto;html=1;entryX=0;entryY=0.25;entryDx=0;entryDy=0;" edge="1" parent="1" source="RQPfIWT2WccuBX4CPapm-23" target="RQPfIWT2WccuBX4CPapm-17">
          <mxGeometry relative="1" as="geometry" />
        </mxCell>
        <mxCell id="RQPfIWT2WccuBX4CPapm-23" value="Actor" style="shape=umlActor;verticalLabelPosition=bottom;verticalAlign=top;html=1;outlineConnect=0;" vertex="1" parent="1">
          <mxGeometry x="210" y="150" width="30" height="60" as="geometry" />
        </mxCell>
        <mxCell id="RQPfIWT2WccuBX4CPapm-28" style="edgeStyle=orthogonalEdgeStyle;rounded=0;orthogonalLoop=1;jettySize=auto;html=1;" edge="1" parent="1" source="RQPfIWT2WccuBX4CPapm-27" target="RQPfIWT2WccuBX4CPapm-20">
          <mxGeometry relative="1" as="geometry" />
        </mxCell>
        <mxCell id="RQPfIWT2WccuBX4CPapm-27" value="ритуал" style="triangle;whiteSpace=wrap;html=1;direction=east;" vertex="1" parent="1">
          <mxGeometry x="140" y="250" width="60" height="80" as="geometry" />
        </mxCell>
        <mxCell id="RQPfIWT2WccuBX4CPapm-36" style="edgeStyle=orthogonalEdgeStyle;rounded=0;orthogonalLoop=1;jettySize=auto;html=1;entryX=0;entryY=0.75;entryDx=0;entryDy=0;" edge="1" parent="1" source="RQPfIWT2WccuBX4CPapm-29" target="RQPfIWT2WccuBX4CPapm-27">
          <mxGeometry relative="1" as="geometry" />
        </mxCell>
        <mxCell id="RQPfIWT2WccuBX4CPapm-29" value="черный череп" style="rounded=1;whiteSpace=wrap;html=1;" vertex="1" parent="1">
          <mxGeometry x="110" y="370" width="120" height="35" as="geometry" />
        </mxCell>
        <mxCell id="RQPfIWT2WccuBX4CPapm-35" style="edgeStyle=orthogonalEdgeStyle;rounded=0;orthogonalLoop=1;jettySize=auto;html=1;entryX=0;entryY=0.25;entryDx=0;entryDy=0;" edge="1" parent="1" source="RQPfIWT2WccuBX4CPapm-30" target="RQPfIWT2WccuBX4CPapm-27">
          <mxGeometry relative="1" as="geometry" />
        </mxCell>
        <mxCell id="RQPfIWT2WccuBX4CPapm-30" value="песок душ" style="rounded=1;whiteSpace=wrap;html=1;" vertex="1" parent="1">
          <mxGeometry x="20" y="270" width="80" height="30" as="geometry" />
        </mxCell>
        <mxCell id="RQPfIWT2WccuBX4CPapm-39" style="edgeStyle=orthogonalEdgeStyle;rounded=0;orthogonalLoop=1;jettySize=auto;html=1;entryX=0.5;entryY=1;entryDx=0;entryDy=0;" edge="1" parent="1" source="RQPfIWT2WccuBX4CPapm-38" target="RQPfIWT2WccuBX4CPapm-30">
          <mxGeometry relative="1" as="geometry" />
        </mxCell>
        <mxCell id="RQPfIWT2WccuBX4CPapm-38" value="добыча" style="triangle;whiteSpace=wrap;html=1;direction=north;" vertex="1" parent="1">
          <mxGeometry x="10" y="395" width="80" height="55" as="geometry" />
        </mxCell>
        <mxCell id="RQPfIWT2WccuBX4CPapm-41" style="edgeStyle=orthogonalEdgeStyle;rounded=0;orthogonalLoop=1;jettySize=auto;html=1;entryX=0;entryY=0.75;entryDx=0;entryDy=0;" edge="1" parent="1" source="RQPfIWT2WccuBX4CPapm-40" target="RQPfIWT2WccuBX4CPapm-38">
          <mxGeometry relative="1" as="geometry" />
        </mxCell>
        <mxCell id="RQPfIWT2WccuBX4CPapm-57" style="edgeStyle=orthogonalEdgeStyle;rounded=0;orthogonalLoop=1;jettySize=auto;html=1;entryX=0;entryY=0.5;entryDx=0;entryDy=0;" edge="1" parent="1" source="RQPfIWT2WccuBX4CPapm-40" target="RQPfIWT2WccuBX4CPapm-54">
          <mxGeometry relative="1" as="geometry" />
        </mxCell>
        <mxCell id="RQPfIWT2WccuBX4CPapm-40" value="АД" style="whiteSpace=wrap;html=1;aspect=fixed;" vertex="1" parent="1">
          <mxGeometry x="135" y="720" width="50" height="50" as="geometry" />
        </mxCell>
        <mxCell id="RQPfIWT2WccuBX4CPapm-43" style="edgeStyle=orthogonalEdgeStyle;rounded=0;orthogonalLoop=1;jettySize=auto;html=1;" edge="1" parent="1" source="RQPfIWT2WccuBX4CPapm-42" target="RQPfIWT2WccuBX4CPapm-12">
          <mxGeometry relative="1" as="geometry" />
        </mxCell>
        <mxCell id="RQPfIWT2WccuBX4CPapm-42" value="добыча" style="triangle;whiteSpace=wrap;html=1;" vertex="1" parent="1">
          <mxGeometry x="150" y="10" width="60" height="80" as="geometry" />
        </mxCell>
        <mxCell id="RQPfIWT2WccuBX4CPapm-45" style="edgeStyle=orthogonalEdgeStyle;rounded=0;orthogonalLoop=1;jettySize=auto;html=1;entryX=0;entryY=0.75;entryDx=0;entryDy=0;" edge="1" parent="1" source="RQPfIWT2WccuBX4CPapm-44" target="RQPfIWT2WccuBX4CPapm-42">
          <mxGeometry relative="1" as="geometry" />
        </mxCell>
        <mxCell id="RQPfIWT2WccuBX4CPapm-44" value="любой земной биом (не ад и не край)" style="whiteSpace=wrap;html=1;aspect=fixed;" vertex="1" parent="1">
          <mxGeometry x="20" y="100" width="90" height="90" as="geometry" />
        </mxCell>
        <mxCell id="RQPfIWT2WccuBX4CPapm-48" style="edgeStyle=orthogonalEdgeStyle;rounded=0;orthogonalLoop=1;jettySize=auto;html=1;" edge="1" parent="1" source="RQPfIWT2WccuBX4CPapm-47" target="RQPfIWT2WccuBX4CPapm-29">
          <mxGeometry relative="1" as="geometry" />
        </mxCell>
        <mxCell id="RQPfIWT2WccuBX4CPapm-47" value="kill" style="triangle;whiteSpace=wrap;html=1;direction=north;" vertex="1" parent="1">
          <mxGeometry x="160" y="455" width="80" height="60" as="geometry" />
        </mxCell>
        <mxCell id="RQPfIWT2WccuBX4CPapm-52" style="edgeStyle=orthogonalEdgeStyle;rounded=0;orthogonalLoop=1;jettySize=auto;html=1;" edge="1" parent="1" source="RQPfIWT2WccuBX4CPapm-50" target="RQPfIWT2WccuBX4CPapm-47">
          <mxGeometry relative="1" as="geometry" />
        </mxCell>
        <mxCell id="RQPfIWT2WccuBX4CPapm-50" value="скелет-исушитель" style="shape=hexagon;perimeter=hexagonPerimeter2;whiteSpace=wrap;html=1;fixedSize=1;" vertex="1" parent="1">
          <mxGeometry x="150" y="605" width="130" height="40" as="geometry" />
        </mxCell>
        <mxCell id="RQPfIWT2WccuBX4CPapm-100" style="edgeStyle=orthogonalEdgeStyle;rounded=0;orthogonalLoop=1;jettySize=auto;html=1;entryX=0;entryY=0.25;entryDx=0;entryDy=0;" edge="1" parent="1" source="RQPfIWT2WccuBX4CPapm-51" target="RQPfIWT2WccuBX4CPapm-47">
          <mxGeometry relative="1" as="geometry" />
        </mxCell>
        <mxCell id="RQPfIWT2WccuBX4CPapm-51" value="Actor" style="shape=umlActor;verticalLabelPosition=bottom;verticalAlign=top;html=1;outlineConnect=0;" vertex="1" parent="1">
          <mxGeometry x="105" y="525" width="30" height="60" as="geometry" />
        </mxCell>
        <mxCell id="RQPfIWT2WccuBX4CPapm-99" style="edgeStyle=orthogonalEdgeStyle;rounded=0;orthogonalLoop=1;jettySize=auto;html=1;entryX=0.5;entryY=1;entryDx=0;entryDy=0;dashed=1;" edge="1" parent="1" source="RQPfIWT2WccuBX4CPapm-54" target="RQPfIWT2WccuBX4CPapm-50">
          <mxGeometry relative="1" as="geometry">
            <Array as="points">
              <mxPoint x="215" y="660" />
              <mxPoint x="215" y="660" />
            </Array>
          </mxGeometry>
        </mxCell>
        <mxCell id="RQPfIWT2WccuBX4CPapm-54" value="обитает в АДу" style="ellipse;whiteSpace=wrap;html=1;" vertex="1" parent="1">
          <mxGeometry x="180" y="670" width="110" height="30" as="geometry" />
        </mxCell>
        <mxCell id="RQPfIWT2WccuBX4CPapm-59" style="edgeStyle=orthogonalEdgeStyle;rounded=0;orthogonalLoop=1;jettySize=auto;html=1;" edge="1" parent="1" source="RQPfIWT2WccuBX4CPapm-58" target="RQPfIWT2WccuBX4CPapm-40">
          <mxGeometry relative="1" as="geometry" />
        </mxCell>
        <mxCell id="RQPfIWT2WccuBX4CPapm-58" value="пройхождение через портал" style="rhombus;whiteSpace=wrap;html=1;" vertex="1" parent="1">
          <mxGeometry x="10" y="790" width="110" height="130" as="geometry" />
        </mxCell>
        <mxCell id="RQPfIWT2WccuBX4CPapm-63" style="edgeStyle=orthogonalEdgeStyle;rounded=0;orthogonalLoop=1;jettySize=auto;html=1;" edge="1" parent="1" source="RQPfIWT2WccuBX4CPapm-60" target="RQPfIWT2WccuBX4CPapm-58">
          <mxGeometry relative="1" as="geometry" />
        </mxCell>
        <mxCell id="RQPfIWT2WccuBX4CPapm-60" value="портал" style="ellipse;whiteSpace=wrap;html=1;aspect=fixed;" vertex="1" parent="1">
          <mxGeometry x="25" y="950" width="80" height="80" as="geometry" />
        </mxCell>
        <mxCell id="RQPfIWT2WccuBX4CPapm-62" style="edgeStyle=orthogonalEdgeStyle;rounded=0;orthogonalLoop=1;jettySize=auto;html=1;" edge="1" parent="1" source="RQPfIWT2WccuBX4CPapm-61" target="RQPfIWT2WccuBX4CPapm-58">
          <mxGeometry relative="1" as="geometry" />
        </mxCell>
        <mxCell id="RQPfIWT2WccuBX4CPapm-61" value="Actor" style="shape=umlActor;verticalLabelPosition=bottom;verticalAlign=top;html=1;outlineConnect=0;" vertex="1" parent="1">
          <mxGeometry x="10" y="680" width="30" height="60" as="geometry" />
        </mxCell>
        <mxCell id="RQPfIWT2WccuBX4CPapm-65" style="edgeStyle=orthogonalEdgeStyle;rounded=0;orthogonalLoop=1;jettySize=auto;html=1;" edge="1" parent="1" source="RQPfIWT2WccuBX4CPapm-64" target="RQPfIWT2WccuBX4CPapm-60">
          <mxGeometry relative="1" as="geometry" />
        </mxCell>
        <mxCell id="RQPfIWT2WccuBX4CPapm-64" value="ритуал" style="triangle;whiteSpace=wrap;html=1;direction=west;" vertex="1" parent="1">
          <mxGeometry x="130" y="950" width="60" height="80" as="geometry" />
        </mxCell>
        <mxCell id="RQPfIWT2WccuBX4CPapm-69" style="edgeStyle=orthogonalEdgeStyle;rounded=0;orthogonalLoop=1;jettySize=auto;html=1;exitX=0;exitY=0.5;exitDx=0;exitDy=0;" edge="1" parent="1" source="RQPfIWT2WccuBX4CPapm-66" target="RQPfIWT2WccuBX4CPapm-64">
          <mxGeometry relative="1" as="geometry" />
        </mxCell>
        <mxCell id="RQPfIWT2WccuBX4CPapm-66" value="обсидиан" style="rounded=1;whiteSpace=wrap;html=1;" vertex="1" parent="1">
          <mxGeometry x="230" y="940" width="130" height="30" as="geometry" />
        </mxCell>
        <mxCell id="RQPfIWT2WccuBX4CPapm-70" style="edgeStyle=orthogonalEdgeStyle;rounded=0;orthogonalLoop=1;jettySize=auto;html=1;" edge="1" parent="1" source="RQPfIWT2WccuBX4CPapm-68" target="RQPfIWT2WccuBX4CPapm-64">
          <mxGeometry relative="1" as="geometry" />
        </mxCell>
        <mxCell id="RQPfIWT2WccuBX4CPapm-68" value="огниво" style="rounded=1;whiteSpace=wrap;html=1;" vertex="1" parent="1">
          <mxGeometry x="225" y="990" width="125" height="30" as="geometry" />
        </mxCell>
        <mxCell id="RQPfIWT2WccuBX4CPapm-72" style="edgeStyle=orthogonalEdgeStyle;rounded=0;orthogonalLoop=1;jettySize=auto;html=1;" edge="1" parent="1" source="RQPfIWT2WccuBX4CPapm-71" target="RQPfIWT2WccuBX4CPapm-66">
          <mxGeometry relative="1" as="geometry" />
        </mxCell>
        <mxCell id="RQPfIWT2WccuBX4CPapm-101" style="edgeStyle=orthogonalEdgeStyle;rounded=0;orthogonalLoop=1;jettySize=auto;html=1;" edge="1" parent="1" source="RQPfIWT2WccuBX4CPapm-71" target="RQPfIWT2WccuBX4CPapm-4">
          <mxGeometry relative="1" as="geometry">
            <mxPoint x="360" y="640" as="targetPoint" />
            <Array as="points">
              <mxPoint x="390" y="950" />
              <mxPoint x="390" y="850" />
              <mxPoint x="320" y="850" />
              <mxPoint x="320" y="330" />
              <mxPoint x="360" y="330" />
              <mxPoint x="360" y="325" />
              <mxPoint x="500" y="325" />
            </Array>
          </mxGeometry>
        </mxCell>
        <mxCell id="RQPfIWT2WccuBX4CPapm-71" value="добыча" style="triangle;whiteSpace=wrap;html=1;direction=west;" vertex="1" parent="1">
          <mxGeometry x="400" y="910" width="60" height="80" as="geometry" />
        </mxCell>
        <mxCell id="RQPfIWT2WccuBX4CPapm-74" style="edgeStyle=orthogonalEdgeStyle;rounded=0;orthogonalLoop=1;jettySize=auto;html=1;entryX=0;entryY=0.75;entryDx=0;entryDy=0;" edge="1" parent="1" source="RQPfIWT2WccuBX4CPapm-73" target="RQPfIWT2WccuBX4CPapm-71">
          <mxGeometry relative="1" as="geometry" />
        </mxCell>
        <mxCell id="RQPfIWT2WccuBX4CPapm-73" value="алмазная кирка" style="rounded=1;whiteSpace=wrap;html=1;" vertex="1" parent="1">
          <mxGeometry x="360" y="790" width="110" height="30" as="geometry" />
        </mxCell>
        <mxCell id="RQPfIWT2WccuBX4CPapm-77" style="edgeStyle=orthogonalEdgeStyle;rounded=0;orthogonalLoop=1;jettySize=auto;html=1;entryX=0;entryY=0.25;entryDx=0;entryDy=0;" edge="1" parent="1" source="RQPfIWT2WccuBX4CPapm-76" target="RQPfIWT2WccuBX4CPapm-71">
          <mxGeometry relative="1" as="geometry" />
        </mxCell>
        <mxCell id="RQPfIWT2WccuBX4CPapm-76" value="блок обсидиана" style="rounded=0;whiteSpace=wrap;html=1;" vertex="1" parent="1">
          <mxGeometry x="490" y="970" width="130" height="40" as="geometry" />
        </mxCell>
        <mxCell id="RQPfIWT2WccuBX4CPapm-80" style="edgeStyle=orthogonalEdgeStyle;rounded=0;orthogonalLoop=1;jettySize=auto;html=1;entryX=0.5;entryY=0;entryDx=0;entryDy=0;" edge="1" parent="1" source="RQPfIWT2WccuBX4CPapm-79" target="RQPfIWT2WccuBX4CPapm-73">
          <mxGeometry relative="1" as="geometry">
            <Array as="points">
              <mxPoint x="415" y="740" />
            </Array>
          </mxGeometry>
        </mxCell>
        <mxCell id="RQPfIWT2WccuBX4CPapm-79" value="крафт" style="triangle;whiteSpace=wrap;html=1;direction=south;" vertex="1" parent="1">
          <mxGeometry x="545" y="680" width="80" height="60" as="geometry" />
        </mxCell>
        <mxCell id="RQPfIWT2WccuBX4CPapm-82" style="edgeStyle=orthogonalEdgeStyle;rounded=0;orthogonalLoop=1;jettySize=auto;html=1;entryX=0;entryY=0.75;entryDx=0;entryDy=0;" edge="1" parent="1" source="RQPfIWT2WccuBX4CPapm-81" target="RQPfIWT2WccuBX4CPapm-79">
          <mxGeometry relative="1" as="geometry" />
        </mxCell>
        <mxCell id="RQPfIWT2WccuBX4CPapm-81" value="палки" style="rounded=1;whiteSpace=wrap;html=1;" vertex="1" parent="1">
          <mxGeometry x="340" y="610" width="110" height="30" as="geometry" />
        </mxCell>
        <mxCell id="RQPfIWT2WccuBX4CPapm-90" style="edgeStyle=orthogonalEdgeStyle;rounded=0;orthogonalLoop=1;jettySize=auto;html=1;entryX=0;entryY=0.25;entryDx=0;entryDy=0;" edge="1" parent="1" source="RQPfIWT2WccuBX4CPapm-84" target="RQPfIWT2WccuBX4CPapm-79">
          <mxGeometry relative="1" as="geometry">
            <Array as="points">
              <mxPoint x="720" y="380" />
              <mxPoint x="510" y="380" />
              <mxPoint x="510" y="580" />
              <mxPoint x="605" y="580" />
            </Array>
          </mxGeometry>
        </mxCell>
        <mxCell id="RQPfIWT2WccuBX4CPapm-84" value="алмазы" style="rounded=1;whiteSpace=wrap;html=1;" vertex="1" parent="1">
          <mxGeometry x="660" y="360" width="120" height="30" as="geometry" />
        </mxCell>
        <mxCell id="RQPfIWT2WccuBX4CPapm-86" value="" style="edgeStyle=orthogonalEdgeStyle;rounded=0;orthogonalLoop=1;jettySize=auto;html=1;" edge="1" parent="1" source="RQPfIWT2WccuBX4CPapm-85" target="RQPfIWT2WccuBX4CPapm-81">
          <mxGeometry relative="1" as="geometry" />
        </mxCell>
        <mxCell id="RQPfIWT2WccuBX4CPapm-85" value="крафт" style="triangle;whiteSpace=wrap;html=1;direction=south;" vertex="1" parent="1">
          <mxGeometry x="355" y="515" width="80" height="60" as="geometry" />
        </mxCell>
        <mxCell id="RQPfIWT2WccuBX4CPapm-102" style="edgeStyle=orthogonalEdgeStyle;rounded=0;orthogonalLoop=1;jettySize=auto;html=1;" edge="1" parent="1" source="RQPfIWT2WccuBX4CPapm-87" target="RQPfIWT2WccuBX4CPapm-85">
          <mxGeometry relative="1" as="geometry" />
        </mxCell>
        <mxCell id="RQPfIWT2WccuBX4CPapm-87" value="&lt;div&gt;дерево&lt;/div&gt;" style="rounded=0;whiteSpace=wrap;html=1;" vertex="1" parent="1">
          <mxGeometry x="370" y="370" width="120" height="20" as="geometry" />
        </mxCell>
        <mxCell id="RQPfIWT2WccuBX4CPapm-93" value="" style="edgeStyle=orthogonalEdgeStyle;rounded=0;orthogonalLoop=1;jettySize=auto;html=1;" edge="1" parent="1" source="RQPfIWT2WccuBX4CPapm-92" target="RQPfIWT2WccuBX4CPapm-84">
          <mxGeometry relative="1" as="geometry" />
        </mxCell>
        <mxCell id="RQPfIWT2WccuBX4CPapm-92" value="добыча" style="triangle;whiteSpace=wrap;html=1;direction=north;" vertex="1" parent="1">
          <mxGeometry x="670" y="425" width="80" height="30" as="geometry" />
        </mxCell>
        <mxCell id="RQPfIWT2WccuBX4CPapm-95" style="edgeStyle=orthogonalEdgeStyle;rounded=0;orthogonalLoop=1;jettySize=auto;html=1;entryX=0;entryY=0.25;entryDx=0;entryDy=0;" edge="1" parent="1" source="RQPfIWT2WccuBX4CPapm-94" target="RQPfIWT2WccuBX4CPapm-92">
          <mxGeometry relative="1" as="geometry" />
        </mxCell>
        <mxCell id="RQPfIWT2WccuBX4CPapm-94" value="алмазная руда" style="rounded=0;whiteSpace=wrap;html=1;" vertex="1" parent="1">
          <mxGeometry x="540" y="425" width="90" height="25" as="geometry" />
        </mxCell>
        <mxCell id="RQPfIWT2WccuBX4CPapm-97" value="" style="edgeStyle=orthogonalEdgeStyle;rounded=0;orthogonalLoop=1;jettySize=auto;html=1;" edge="1" parent="1" source="RQPfIWT2WccuBX4CPapm-96" target="RQPfIWT2WccuBX4CPapm-92">
          <mxGeometry relative="1" as="geometry" />
        </mxCell>
        <mxCell id="RQPfIWT2WccuBX4CPapm-96" value="железная кирка" style="rounded=1;whiteSpace=wrap;html=1;" vertex="1" parent="1">
          <mxGeometry x="740" y="500" width="60" height="35" as="geometry" />
        </mxCell>
        <mxCell id="RQPfIWT2WccuBX4CPapm-107" value="" style="edgeStyle=orthogonalEdgeStyle;rounded=0;orthogonalLoop=1;jettySize=auto;html=1;entryX=0;entryY=0.25;entryDx=0;entryDy=0;" edge="1" parent="1" source="RQPfIWT2WccuBX4CPapm-104" target="RQPfIWT2WccuBX4CPapm-105">
          <mxGeometry relative="1" as="geometry" />
        </mxCell>
        <mxCell id="RQPfIWT2WccuBX4CPapm-104" value="палки" style="rounded=1;whiteSpace=wrap;html=1;" vertex="1" parent="1">
          <mxGeometry x="620" y="495" width="40" height="20" as="geometry" />
        </mxCell>
        <mxCell id="RQPfIWT2WccuBX4CPapm-106" value="" style="edgeStyle=orthogonalEdgeStyle;rounded=0;orthogonalLoop=1;jettySize=auto;html=1;" edge="1" parent="1" source="RQPfIWT2WccuBX4CPapm-105" target="RQPfIWT2WccuBX4CPapm-96">
          <mxGeometry relative="1" as="geometry" />
        </mxCell>
        <mxCell id="RQPfIWT2WccuBX4CPapm-105" value="крафт" style="triangle;whiteSpace=wrap;html=1;" vertex="1" parent="1">
          <mxGeometry x="680" y="492.5" width="40" height="50" as="geometry" />
        </mxCell>
        <mxCell id="RQPfIWT2WccuBX4CPapm-110" style="edgeStyle=orthogonalEdgeStyle;rounded=0;orthogonalLoop=1;jettySize=auto;html=1;entryX=0;entryY=0.5;entryDx=0;entryDy=0;" edge="1" parent="1" source="RQPfIWT2WccuBX4CPapm-108" target="RQPfIWT2WccuBX4CPapm-104">
          <mxGeometry relative="1" as="geometry" />
        </mxCell>
        <mxCell id="RQPfIWT2WccuBX4CPapm-108" value="крафт" style="triangle;whiteSpace=wrap;html=1;" vertex="1" parent="1">
          <mxGeometry x="560" y="480" width="40" height="50" as="geometry" />
        </mxCell>
        <mxCell id="RQPfIWT2WccuBX4CPapm-112" value="" style="edgeStyle=orthogonalEdgeStyle;rounded=0;orthogonalLoop=1;jettySize=auto;html=1;entryX=0;entryY=0.75;entryDx=0;entryDy=0;" edge="1" parent="1" source="RQPfIWT2WccuBX4CPapm-111" target="RQPfIWT2WccuBX4CPapm-108">
          <mxGeometry relative="1" as="geometry" />
        </mxCell>
        <mxCell id="RQPfIWT2WccuBX4CPapm-111" value="доски" style="rounded=0;whiteSpace=wrap;html=1;" vertex="1" parent="1">
          <mxGeometry x="520" y="547.5" width="50" height="15" as="geometry" />
        </mxCell>
        <mxCell id="RQPfIWT2WccuBX4CPapm-116" style="edgeStyle=orthogonalEdgeStyle;rounded=0;orthogonalLoop=1;jettySize=auto;html=1;entryX=0;entryY=0.75;entryDx=0;entryDy=0;" edge="1" parent="1" source="RQPfIWT2WccuBX4CPapm-115" target="RQPfIWT2WccuBX4CPapm-105">
          <mxGeometry relative="1" as="geometry" />
        </mxCell>
        <mxCell id="RQPfIWT2WccuBX4CPapm-115" value="железо" style="rounded=1;whiteSpace=wrap;html=1;" vertex="1" parent="1">
          <mxGeometry x="620" y="555" width="60" height="20" as="geometry" />
        </mxCell>
        <mxCell id="RQPfIWT2WccuBX4CPapm-118" value="" style="edgeStyle=orthogonalEdgeStyle;rounded=0;orthogonalLoop=1;jettySize=auto;html=1;" edge="1" parent="1" source="RQPfIWT2WccuBX4CPapm-117" target="RQPfIWT2WccuBX4CPapm-115">
          <mxGeometry relative="1" as="geometry" />
        </mxCell>
        <mxCell id="RQPfIWT2WccuBX4CPapm-117" value="bake" style="triangle;whiteSpace=wrap;html=1;direction=north;" vertex="1" parent="1">
          <mxGeometry x="620" y="605" width="50" height="40" as="geometry" />
        </mxCell>
        <mxCell id="RQPfIWT2WccuBX4CPapm-134" style="edgeStyle=orthogonalEdgeStyle;rounded=0;orthogonalLoop=1;jettySize=auto;html=1;entryX=0;entryY=0.5;entryDx=0;entryDy=0;" edge="1" parent="1" source="RQPfIWT2WccuBX4CPapm-119" target="RQPfIWT2WccuBX4CPapm-132">
          <mxGeometry relative="1" as="geometry" />
        </mxCell>
        <mxCell id="RQPfIWT2WccuBX4CPapm-119" value="каменная кирка" style="rounded=1;whiteSpace=wrap;html=1;" vertex="1" parent="1">
          <mxGeometry x="765" y="580" width="60" height="35" as="geometry" />
        </mxCell>
        <mxCell id="RQPfIWT2WccuBX4CPapm-128" style="edgeStyle=orthogonalEdgeStyle;rounded=0;orthogonalLoop=1;jettySize=auto;html=1;entryX=0;entryY=0.75;entryDx=0;entryDy=0;" edge="1" parent="1" source="RQPfIWT2WccuBX4CPapm-121" target="RQPfIWT2WccuBX4CPapm-123">
          <mxGeometry relative="1" as="geometry" />
        </mxCell>
        <mxCell id="RQPfIWT2WccuBX4CPapm-121" value="палки" style="rounded=1;whiteSpace=wrap;html=1;" vertex="1" parent="1">
          <mxGeometry x="775" y="720" width="40" height="20" as="geometry" />
        </mxCell>
        <mxCell id="RQPfIWT2WccuBX4CPapm-135" value="" style="edgeStyle=orthogonalEdgeStyle;rounded=0;orthogonalLoop=1;jettySize=auto;html=1;" edge="1" parent="1" source="RQPfIWT2WccuBX4CPapm-123" target="RQPfIWT2WccuBX4CPapm-119">
          <mxGeometry relative="1" as="geometry" />
        </mxCell>
        <mxCell id="RQPfIWT2WccuBX4CPapm-123" value="крафт" style="triangle;whiteSpace=wrap;html=1;direction=north;" vertex="1" parent="1">
          <mxGeometry x="770" y="650" width="50" height="40" as="geometry" />
        </mxCell>
        <mxCell id="RQPfIWT2WccuBX4CPapm-124" style="edgeStyle=orthogonalEdgeStyle;rounded=0;orthogonalLoop=1;jettySize=auto;html=1;entryX=0.5;entryY=1;entryDx=0;entryDy=0;" edge="1" parent="1" source="RQPfIWT2WccuBX4CPapm-125" target="RQPfIWT2WccuBX4CPapm-121">
          <mxGeometry relative="1" as="geometry" />
        </mxCell>
        <mxCell id="RQPfIWT2WccuBX4CPapm-125" value="крафт" style="triangle;whiteSpace=wrap;html=1;direction=north;" vertex="1" parent="1">
          <mxGeometry x="770" y="770" width="50" height="40" as="geometry" />
        </mxCell>
        <mxCell id="RQPfIWT2WccuBX4CPapm-138" style="edgeStyle=orthogonalEdgeStyle;rounded=0;orthogonalLoop=1;jettySize=auto;html=1;exitX=0.25;exitY=0;exitDx=0;exitDy=0;entryX=0;entryY=0.5;entryDx=0;entryDy=0;" edge="1" parent="1" source="RQPfIWT2WccuBX4CPapm-130" target="RQPfIWT2WccuBX4CPapm-117">
          <mxGeometry relative="1" as="geometry" />
        </mxCell>
        <mxCell id="RQPfIWT2WccuBX4CPapm-130" value="железная руда" style="rounded=1;whiteSpace=wrap;html=1;" vertex="1" parent="1">
          <mxGeometry x="640" y="670" width="100" height="20" as="geometry" />
        </mxCell>
        <mxCell id="RQPfIWT2WccuBX4CPapm-133" style="edgeStyle=orthogonalEdgeStyle;rounded=0;orthogonalLoop=1;jettySize=auto;html=1;entryX=0.5;entryY=0;entryDx=0;entryDy=0;exitX=1;exitY=0.5;exitDx=0;exitDy=0;" edge="1" parent="1" source="RQPfIWT2WccuBX4CPapm-132" target="RQPfIWT2WccuBX4CPapm-130">
          <mxGeometry relative="1" as="geometry" />
        </mxCell>
        <mxCell id="RQPfIWT2WccuBX4CPapm-132" value="добыча" style="triangle;whiteSpace=wrap;html=1;direction=west;" vertex="1" parent="1">
          <mxGeometry x="700" y="580" width="40" height="40" as="geometry" />
        </mxCell>
        <mxCell id="RQPfIWT2WccuBX4CPapm-137" value="" style="edgeStyle=orthogonalEdgeStyle;rounded=0;orthogonalLoop=1;jettySize=auto;html=1;" edge="1" parent="1" source="RQPfIWT2WccuBX4CPapm-136" target="RQPfIWT2WccuBX4CPapm-125">
          <mxGeometry relative="1" as="geometry" />
        </mxCell>
        <mxCell id="RQPfIWT2WccuBX4CPapm-136" value="доски" style="rounded=0;whiteSpace=wrap;html=1;" vertex="1" parent="1">
          <mxGeometry x="745" y="850" width="80" height="30" as="geometry" />
        </mxCell>
        <mxCell id="RQPfIWT2WccuBX4CPapm-140" style="edgeStyle=orthogonalEdgeStyle;rounded=0;orthogonalLoop=1;jettySize=auto;html=1;entryX=0;entryY=0.25;entryDx=0;entryDy=0;" edge="1" parent="1" source="RQPfIWT2WccuBX4CPapm-139" target="RQPfIWT2WccuBX4CPapm-123">
          <mxGeometry relative="1" as="geometry">
            <Array as="points">
              <mxPoint x="720" y="700" />
              <mxPoint x="783" y="700" />
            </Array>
          </mxGeometry>
        </mxCell>
        <mxCell id="RQPfIWT2WccuBX4CPapm-139" value="булыжник" style="rounded=1;whiteSpace=wrap;html=1;" vertex="1" parent="1">
          <mxGeometry x="695" y="720" width="70" height="20" as="geometry" />
        </mxCell>
        <mxCell id="RQPfIWT2WccuBX4CPapm-143" style="edgeStyle=orthogonalEdgeStyle;rounded=0;orthogonalLoop=1;jettySize=auto;html=1;entryX=0;entryY=0.25;entryDx=0;entryDy=0;" edge="1" parent="1" source="RQPfIWT2WccuBX4CPapm-141" target="RQPfIWT2WccuBX4CPapm-142">
          <mxGeometry relative="1" as="geometry" />
        </mxCell>
        <mxCell id="RQPfIWT2WccuBX4CPapm-141" value="камень" style="rounded=0;whiteSpace=wrap;html=1;" vertex="1" parent="1">
          <mxGeometry x="530" y="750" width="80" height="20" as="geometry" />
        </mxCell>
        <mxCell id="RQPfIWT2WccuBX4CPapm-144" style="edgeStyle=orthogonalEdgeStyle;rounded=0;orthogonalLoop=1;jettySize=auto;html=1;entryX=0.75;entryY=1;entryDx=0;entryDy=0;" edge="1" parent="1" source="RQPfIWT2WccuBX4CPapm-142" target="RQPfIWT2WccuBX4CPapm-139">
          <mxGeometry relative="1" as="geometry">
            <Array as="points">
              <mxPoint x="750" y="790" />
              <mxPoint x="750" y="750" />
              <mxPoint x="748" y="750" />
            </Array>
          </mxGeometry>
        </mxCell>
        <mxCell id="RQPfIWT2WccuBX4CPapm-142" value="добыча" style="triangle;whiteSpace=wrap;html=1;" vertex="1" parent="1">
          <mxGeometry x="685" y="770" width="50" height="40" as="geometry" />
        </mxCell>
        <mxCell id="RQPfIWT2WccuBX4CPapm-146" style="edgeStyle=orthogonalEdgeStyle;rounded=0;orthogonalLoop=1;jettySize=auto;html=1;entryX=0;entryY=0.75;entryDx=0;entryDy=0;" edge="1" parent="1" source="RQPfIWT2WccuBX4CPapm-145" target="RQPfIWT2WccuBX4CPapm-142">
          <mxGeometry relative="1" as="geometry" />
        </mxCell>
        <mxCell id="RQPfIWT2WccuBX4CPapm-145" value="деревянная кирка" style="rounded=1;whiteSpace=wrap;html=1;" vertex="1" parent="1">
          <mxGeometry x="560" y="785" width="80" height="40" as="geometry" />
        </mxCell>
        <mxCell id="RQPfIWT2WccuBX4CPapm-148" value="" style="edgeStyle=orthogonalEdgeStyle;rounded=0;orthogonalLoop=1;jettySize=auto;html=1;" edge="1" parent="1" source="RQPfIWT2WccuBX4CPapm-147" target="RQPfIWT2WccuBX4CPapm-145">
          <mxGeometry relative="1" as="geometry" />
        </mxCell>
        <mxCell id="RQPfIWT2WccuBX4CPapm-147" value="крафт" style="triangle;whiteSpace=wrap;html=1;direction=north;" vertex="1" parent="1">
          <mxGeometry x="570" y="850" width="60" height="40" as="geometry" />
        </mxCell>
        <mxCell id="RQPfIWT2WccuBX4CPapm-152" style="edgeStyle=orthogonalEdgeStyle;rounded=0;orthogonalLoop=1;jettySize=auto;html=1;entryX=0;entryY=0.25;entryDx=0;entryDy=0;" edge="1" parent="1" source="RQPfIWT2WccuBX4CPapm-149" target="RQPfIWT2WccuBX4CPapm-147">
          <mxGeometry relative="1" as="geometry" />
        </mxCell>
        <mxCell id="RQPfIWT2WccuBX4CPapm-149" value="палки" style="rounded=1;whiteSpace=wrap;html=1;" vertex="1" parent="1">
          <mxGeometry x="510" y="920" width="80" height="30" as="geometry" />
        </mxCell>
        <mxCell id="RQPfIWT2WccuBX4CPapm-153" style="edgeStyle=orthogonalEdgeStyle;rounded=0;orthogonalLoop=1;jettySize=auto;html=1;entryX=0;entryY=0.75;entryDx=0;entryDy=0;" edge="1" parent="1" source="RQPfIWT2WccuBX4CPapm-150" target="RQPfIWT2WccuBX4CPapm-147">
          <mxGeometry relative="1" as="geometry" />
        </mxCell>
        <mxCell id="RQPfIWT2WccuBX4CPapm-150" value="доски" style="rounded=1;whiteSpace=wrap;html=1;" vertex="1" parent="1">
          <mxGeometry x="610" y="920" width="70" height="30" as="geometry" />
        </mxCell>
      </root>
    </mxGraphModel>
  </diagram>
</mxfile>
